<?xml version="1.0" standalone="no"?>
<!DOCTYPE svg PUBLIC "-//W3C//DTD SVG 20010904//EN"
 "http://www.w3.org/TR/2001/REC-SVG-20010904/DTD/svg10.dtd">
<svg version="1.0" xmlns="http://www.w3.org/2000/svg"
 width="384.000000pt" height="384.000000pt" viewBox="0 0 384.000000 384.000000"
 preserveAspectRatio="xMidYMid meet">
<metadata>
Created by potrace 1.14, written by Peter Selinger 2001-2017
</metadata>
<g transform="translate(0.000000,384.000000) scale(0.100000,-0.100000)"
fill="#000000" stroke="none">
<path d="M0 1920 l0 -1920 1920 0 1920 0 0 1920 0 1920 -1920 0 -1920 0 0
-1920z m2560 910 l0 -190 75 0 75 0 0 -185 0 -185 75 0 75 0 0 -190 0 -190 75
0 75 0 0 -185 0 -185 75 0 75 0 0 -190 0 -190 75 0 75 0 0 -185 0 -185 75 0
75 0 0 -190 0 -191 -675 3 c-566 3 -677 5 -684 17 -8 12 -139 15 -808 19 -439
3 -790 8 -781 10 11 2 18 13 18 27 0 13 6 26 13 28 7 3 6 6 -5 6 -22 1 -32 17
-17 27 8 4 9 3 5 -4 -4 -7 -2 -12 3 -12 14 0 14 17 1 25 -5 3 -6 13 -3 22 4 9
2 14 -3 10 -6 -3 -8 8 -6 28 2 19 -3 55 -11 80 -9 25 -12 43 -8 40 5 -3 11 2
14 10 4 9 1 12 -9 8 -10 -4 -12 0 -8 11 5 14 29 16 173 16 443 0 1427 14 1431
20 3 4 12 10 20 13 8 3 -235 6 -541 6 -306 1 -637 4 -737 8 l-182 6 6 26 c3
14 5 31 5 36 -1 6 -2 24 -4 40 -1 17 -7 33 -14 38 -8 5 -9 15 -4 30 6 16 4 25
-8 34 -12 9 -13 12 -2 13 11 0 11 3 0 17 -12 15 -12 16 1 8 12 -7 13 -6 3 7
-7 8 -10 18 -6 21 3 4 0 13 -7 22 -7 9 -10 19 -6 23 4 4 326 9 716 12 390 3
712 8 716 12 4 5 4 11 1 14 -3 4 -293 9 -643 12 -350 3 -630 9 -621 13 9 5 13
18 10 34 -3 15 -10 22 -17 18 -6 -4 -5 1 3 10 9 12 10 17 2 17 -8 0 -11 14
-10 38 2 51 0 64 -9 58 -10 -6 -9 24 1 41 4 6 1 13 -6 16 -15 5 -15 44 -1 69
8 15 71 17 667 24 361 4 657 10 657 15 0 4 8 9 18 12 9 2 -246 6 -568 10 -322
3 -591 7 -597 8 -10 2 -10 5 0 18 9 12 9 13 0 7 -9 -5 -13 0 -14 16 -3 70 -10
112 -20 124 -9 11 -8 14 1 14 9 0 9 4 -1 17 -10 11 -10 14 -1 9 6 -4 12 -3 12
3 0 5 -4 11 -8 13 -8 3 -25 95 -19 100 1 1 271 5 599 8 328 3 600 8 604 13 4
4 4 10 1 13 -4 4 -223 9 -486 12 -464 5 -480 5 -470 23 7 13 6 19 -1 19 -6 0
-10 15 -8 35 1 19 -3 40 -10 47 -15 15 -16 32 -1 22 6 -3 3 8 -6 26 -9 17 -14
34 -12 37 3 2 -1 19 -8 38 -8 18 -11 35 -8 38 3 4 0 13 -7 22 -7 9 -11 17 -9
19 2 2 228 7 501 11 384 6 498 11 502 20 4 10 -86 14 -422 18 -235 4 -432 7
-437 8 -10 2 -14 19 -16 66 -1 13 -4 21 -8 18 -4 -2 -9 52 -10 120 l-2 125
435 0 c411 0 466 3 442 27 -3 3 -168 8 -366 11 -199 3 -356 8 -350 12 9 5 9 9
1 14 -7 5 -11 58 -11 156 l0 150 383 3 c210 1 487 3 615 5 l232 2 0 -190z
m-2053 -2212 c-3 -8 -6 -5 -6 6 -1 11 2 17 5 13 3 -3 4 -12 1 -19z"/>
<path d="M1908 2881 c-22 -22 -23 -32 -3 -25 12 5 15 -4 15 -45 0 -39 4 -51
15 -51 12 0 15 14 15 70 0 74 -9 85 -42 51z"/>
<path d="M1892 2518 c-13 -13 -16 -38 -6 -38 4 0 12 7 19 17 13 17 45 12 45
-7 0 -5 -16 -27 -35 -49 -19 -21 -35 -44 -35 -50 0 -6 18 -11 45 -11 25 0 45
5 45 10 0 6 -17 10 -37 10 l-37 0 37 36 c20 20 37 44 37 53 0 23 -20 41 -45
41 -12 0 -26 -5 -33 -12z"/>
<path d="M1884 2135 c-9 -23 3 -30 21 -11 17 17 35 13 35 -6 0 -6 -8 -16 -17
-23 -15 -11 -15 -13 5 -19 12 -4 22 -14 22 -22 0 -20 -27 -29 -45 -14 -20 17
-31 5 -15 -15 29 -35 92 0 75 41 -4 11 -8 33 -9 49 -1 26 -5 30 -34 33 -22 2
-34 -2 -38 -13z"/>
<path d="M1903 1732 c-18 -27 -33 -51 -33 -55 0 -4 14 -7 30 -7 23 0 30 -4 30
-20 0 -11 5 -20 10 -20 6 0 10 9 10 19 0 11 6 22 13 25 10 5 10 7 0 12 -8 3
-13 24 -13 50 0 24 -3 44 -7 44 -5 0 -23 -22 -40 -48z m27 -17 c0 -16 -6 -25
-15 -25 -18 0 -19 4 -3 30 16 26 18 25 18 -5z"/>
<path d="M1890 1388 c0 -7 -3 -23 -6 -36 -6 -20 -3 -22 27 -20 30 3 34 0 34
-22 0 -28 -32 -41 -46 -19 -4 7 -11 10 -15 6 -11 -11 17 -37 40 -37 29 0 46
18 46 50 0 30 -17 50 -42 50 -32 0 -20 29 15 33 28 3 26 4 -10 5 -29 1 -43 -2
-43 -10z"/>
<path d="M1896 1014 c-24 -24 -22 -110 3 -124 27 -14 37 -13 55 6 34 34 3 96
-40 80 -8 -3 -14 1 -14 10 0 20 27 29 45 14 20 -17 32 -5 15 15 -16 19 -44 19
-64 -1z m49 -84 c0 -16 -6 -26 -18 -28 -19 -4 -32 20 -23 44 9 25 41 13 41
-16z"/>
<path d="M1908 643 c17 -2 32 -5 32 -7 0 -1 -9 -19 -20 -41 -21 -42 -26 -85
-10 -85 6 0 10 8 10 18 0 10 11 41 25 68 14 27 25 50 25 52 0 1 -21 1 -47 0
-37 -1 -40 -2 -15 -5z"/>
</g>
</svg>
