<svg xmlns="http://www.w3.org/2000/svg" viewBox="0 0 100 125"><path d="M27.291 71.879H7.56a.359.359 0 01-.359-.359V24.58a.36.36 0 01.359-.359h26.476a.36.36 0 01.359.359v26.915h1.884V19.196a3.949 3.949 0 00-3.949-3.949h-.902a.357.357 0 00-.324-.209h-3.44a.36.36 0 00-.324.209H9.175a3.949 3.949 0 00-3.949 3.949v5.102a.358.358 0 00-.209.324v1.305c0 .144.086.267.209.324v1.517a.357.357 0 00-.209.324v1.305c0 .144.086.267.209.323v47.064a3.948 3.948 0 003.949 3.949H27.29v-8.854zM20.634 17.79a.598.598 0 110 1.197.598.598 0 010-1.197zm-2.094 2.812h4.488a.36.36 0 010 .717H18.54a.358.358 0 110-.717zm2.453 58.635a3.114 3.114 0 01-3.111-3.111 3.115 3.115 0 013.111-3.111 3.114 3.114 0 013.111 3.111 3.113 3.113 0 01-3.111 3.111z"/><path d="M21.007 73.703a2.397 2.397 0 00-2.394 2.393c0 1.32 1.074 2.395 2.394 2.395s2.393-1.074 2.393-2.395a2.396 2.396 0 00-2.393-2.393z"/><circle cx="33.692" cy="68.917" r="2.394"/><path d="M94.572 75.265V57.1a3.947 3.947 0 00-3.949-3.948h-5.102a.355.355 0 00-.323-.209h-1.307a.35.35 0 00-.322.209H82.05a.357.357 0 00-.324-.209h-1.304a.355.355 0 00-.325.209H33.034a3.948 3.948 0 00-3.949 3.948v23.155a3.949 3.949 0 003.949 3.949h57.589a3.949 3.949 0 003.949-3.949v-.901a.359.359 0 00.209-.325v-3.44a.355.355 0 00-.209-.324zm-60.88-3.237a3.114 3.114 0 01-3.111-3.111c0-1.716 1.396-3.111 3.111-3.111s3.111 1.396 3.111 3.111a3.114 3.114 0 01-3.111 3.111zm51.906 9.932a.358.358 0 01-.359.358h-46.94a.358.358 0 01-.359-.358V55.484a.36.36 0 01.359-.359h46.939a.36.36 0 01.359.359V81.96zm3.62-11.009a.36.36 0 01-.718 0v-4.487a.36.36 0 01.718 0v4.487zm2.213-1.795a.598.598 0 110-1.195.598.598 0 010 1.195zM63.517 44.91l-1.689 1.824c-.959-9.565-6.532-14.115-11.134-16.253-5.123-2.383-10.028-2.34-10.234-2.34l-.529.008v1.435l.548-.007c.046-.004 4.825-.033 9.654 2.227 6.056 2.833 9.495 7.841 10.247 14.894l-1.727-1.601.079 2.065 2.524 2.34 2.34-2.525-.079-2.067z"/></svg>